<svg xmlns="http://www.w3.org/2000/svg" viewBox="0 0 640 480">
  <defs>
    <clipPath id="g"><rect x="392" y="62" width="176" height="186" rx="3"/></clipPath>
    <linearGradient id="sky" x1="0" y1="0" x2="0" y2="1"><stop offset="0" stop-color="#dceef3"/><stop offset="1" stop-color="#f3f8f5"/></linearGradient>
    <linearGradient id="shine" x1="0" y1="0" x2="1" y2="0"><stop offset="0" stop-color="#fff" stop-opacity="0"/><stop offset=".5" stop-color="#fff" stop-opacity=".7"/><stop offset="1" stop-color="#fff" stop-opacity="0"/></linearGradient>
    <path id="s" d="M0-10Q1.3-1.3 10 0Q1.3 1.3 0 10Q-1.3 1.3-10 0Q-1.3-1.3 0-10Z"/>
  </defs>

  <!-- wall, floor -->
  <rect width="640" height="480" fill="#eef5f3"/>
  <rect y="336" width="640" height="144" fill="#e6dccb"/>
  <g stroke="#d8cbb4" stroke-width="2"><path d="M0 372h640M0 410h640M0 448h640M90 336v36M300 372v38M470 336v36M180 410v38M420 410v38M580 448v32M40 448v32"/></g>
  <path d="M60 470 250 346h140l150 124Z" fill="url(#shine)" opacity=".55"/>
  <rect y="330" width="640" height="8" fill="#fff"/>

  <!-- empty-wall detail: power point -->
  <rect x="262" y="288" width="22" height="16" rx="3" fill="#fff" stroke="#d6e3e0" stroke-width="2"/>

  <!-- window -->
  <rect x="380" y="50" width="200" height="210" rx="8" fill="#fff"/>
  <rect x="392" y="62" width="176" height="186" rx="3" fill="url(#sky)"/>
  <g clip-path="url(#g)">
    <circle cx="530" cy="100" r="18" fill="#fff" opacity=".9"/>
    <g fill="#b9d7df"><rect x="392" y="178" width="30" height="80"/><rect x="470" y="168" width="26" height="90"/><rect x="530" y="190" width="40" height="70"/></g>
    <g fill="#9cc4cf"><path d="M426 258V130l12-16 12 16v128Z"/><rect x="498" y="146" width="28" height="112"/></g>
  </g>
  <rect x="477" y="62" width="6" height="186" fill="#fff"/>
  <rect x="368" y="256" width="224" height="10" rx="4" fill="#fff"/>

  <!-- moving boxes -->
  <g>
    <rect x="70" y="250" width="130" height="96" rx="4" fill="#d6b27f"/>
    <rect x="70" y="250" width="130" height="16" fill="#c9a26c"/>
    <rect x="126" y="250" width="18" height="96" fill="#e8cfa6"/>
    <rect x="84" y="300" width="36" height="22" rx="2" fill="#fff" opacity=".85"/>
    <rect x="90" y="306" width="22" height="3" rx="1.5" fill="#c9a26c"/><rect x="90" y="313" width="14" height="3" rx="1.5" fill="#c9a26c"/>
    <rect x="92" y="182" width="96" height="70" rx="4" fill="#e0bf8d"/>
    <rect x="92" y="182" width="96" height="12" fill="#d0ab74"/>
    <rect x="132" y="182" width="16" height="70" fill="#ecd6b1"/>
    <rect x="206" y="286" width="84" height="60" rx="4" fill="#d6b27f"/>
    <path d="M206 286l-10-16h84l10 16Z" fill="#e6c897"/>
    <rect x="240" y="286" width="16" height="60" fill="#e8cfa6"/>
  </g>

  <!-- clipboard checklist leaning on box -->
  <g transform="rotate(-6 330 300)">
    <rect x="300" y="226" width="80" height="108" rx="8" fill="#0b6e69"/>
    <rect x="308" y="238" width="64" height="90" rx="4" fill="#fff"/>
    <rect x="324" y="220" width="32" height="14" rx="5" fill="#f4b63f"/>
    <g stroke="#0b6e69" stroke-width="3" fill="none" stroke-linecap="round" stroke-linejoin="round">
      <path d="M315 256l4 4 7-8M315 276l4 4 7-8M315 296l4 4 7-8"/>
    </g>
    <rect x="332" y="254" width="32" height="4" rx="2" fill="#cfe0dc"/>
    <rect x="332" y="274" width="28" height="4" rx="2" fill="#cfe0dc"/>
    <rect x="332" y="294" width="32" height="4" rx="2" fill="#cfe0dc"/>
    <rect x="315" y="312" width="9" height="9" rx="2" fill="none" stroke="#cfe0dc" stroke-width="2"/>
    <rect x="332" y="314" width="24" height="4" rx="2" fill="#cfe0dc"/>
  </g>

  <!-- mop + bucket -->
  <path d="M470 160 506 394" stroke="#c9a97e" stroke-width="6" stroke-linecap="round"/>
  <path d="M488 392h40l6 14h-52Z" fill="#0b6e69"/>
  <path d="M484 406h52l-4 10h-44Z" fill="#dfeeea"/>
  <path d="M532 360h66l-8 70h-50Z" fill="#f4b63f"/>
  <rect x="528" y="354" width="74" height="10" rx="5" fill="#e0a126"/>
  <path d="M540 356c0-22 50-22 50 0" fill="none" stroke="#10272f" stroke-width="3"/>

  <!-- keys with tag on floor -->
  <g transform="translate(360 408) rotate(-12)">
    <circle cx="0" cy="0" r="10" fill="none" stroke="#9aa7ab" stroke-width="4"/>
    <path d="M8 4h30v6h-6v6h-6v-6h-18Z" fill="#b8c2c5"/>
    <path d="M-6 6l-8 26 20 6 8-26Z" fill="#fff" stroke="#e0a126" stroke-width="2"/>
    <circle cx="-1" cy="14" r="2.5" fill="#e0a126"/>
  </g>

  <!-- sparkles -->
  <g fill="#fff"><use href="#s" transform="translate(300 170) scale(1.3)"/><use href="#s" transform="translate(610 300) scale(.8)"/><use href="#s" transform="translate(236 420) scale(.9)"/></g>
  <g fill="#f4b63f"><use href="#s" transform="translate(330 196) scale(.7)"/><use href="#s" transform="translate(40 220) scale(.9)"/><use href="#s" transform="translate(452 452) scale(.7)"/></g>
</svg>
