<svg xmlns="http://www.w3.org/2000/svg" viewBox="0 0 640 480">
  <defs><path id="s" d="M0-10Q1.3-1.3 10 0Q1.3 1.3 0 10Q-1.3 1.3-10 0Q-1.3-1.3 0-10Z"/></defs>
  <rect width="640" height="480" fill="#f4f7f5"/>
  <rect y="360" width="640" height="120" fill="#cdbfa5"/>
  <g stroke="#bfb094" stroke-width="2"><path d="M0 396h640M0 436h640"/></g>
  <rect y="354" width="640" height="8" fill="#fff"/>
  <!-- open built-in wardrobe, empty -->
  <rect x="40" y="50" width="280" height="310" fill="#fff"/>
  <rect x="52" y="62" width="256" height="298" fill="#eef1ef"/>
  <path d="M180 62v298" stroke="#e1e6e3" stroke-width="3"/>
  <rect x="52" y="130" width="128" height="6" fill="#dde3e0"/>
  <path d="M190 100h110" stroke="#aebdba" stroke-width="4" stroke-linecap="round"/>
  <g stroke="#aebdba" stroke-width="3" fill="none"><path d="M214 100v10l-10 10h20l-10-10"/><path d="M262 100v10l-10 10h20l-10-10"/></g>
  <rect x="52" y="250" width="128" height="6" fill="#dde3e0"/>
  <!-- sliding door panel half open -->
  <rect x="300" y="50" width="120" height="310" fill="#d9eeea" opacity=".55"/>
  <rect x="300" y="50" width="120" height="310" fill="none" stroke="#fff" stroke-width="10"/>
  <!-- window with blinds -->
  <rect x="460" y="70" width="140" height="190" fill="#fff"/>
  <rect x="470" y="80" width="120" height="170" fill="#d6ebf1"/>
  <g stroke="#fff" stroke-width="3" opacity=".9"><path d="M470 96h120M470 112h120M470 128h120"/></g>
  <!-- vacuum -->
  <path d="M520 470 560 300" stroke="#10272f" stroke-width="5" stroke-linecap="round"/>
  <rect x="490" y="440" width="70" height="26" rx="10" fill="#0b6e69"/>
  <path d="M552 300h20" stroke="#10272f" stroke-width="6" stroke-linecap="round"/>
  <rect x="470" y="452" width="22" height="10" rx="4" fill="#f4b63f"/>
  <!-- floor shine -->
  <path d="M120 470l130-80M300 470l90-60" stroke="#fff" stroke-width="10" opacity=".45" stroke-linecap="round"/>
  <g fill="#fff"><use href="#s" transform="translate(240 200) scale(1.2)"/><use href="#s" transform="translate(620 330) scale(.8)"/></g>
  <g fill="#f4b63f"><use href="#s" transform="translate(110 190) scale(.9)"/><use href="#s" transform="translate(420 420) scale(.8)"/></g>
</svg>
